<svg xmlns="http://www.w3.org/2000/svg" viewBox="0 0 720 190" role="img" aria-labelledby="title desc">
 <title id="title">Brasa Burguer</title><desc id="desc">Brasa Burguer, hamburgueria</desc>
 <rect width="720" height="190" rx="30" fill="#171313"/>
 <path d="M99 28c-26 25-39 43-39 65 0 25 18 47 43 47 28 0 48-20 48-47 0-19-12-38-34-57 2 17-5 28-16 36 1-17 0-29-2-44Z" fill="#f47b20"/>
 <path d="M101 78c-12 12-17 21-17 31 0 11 7 20 18 20 13 0 22-9 22-21 0-8-6-17-15-25 0 7-3 11-8 15 1-8 1-13 0-20Z" fill="#ffd166"/>
 <text x="185" y="106" fill="#fff" font-family="Arial,sans-serif" font-size="53" font-weight="900" letter-spacing="1">BRASA</text>
 <text x="187" y="150" fill="#f47b20" font-family="Arial,sans-serif" font-size="35" font-weight="800" letter-spacing="3">BURGUER</text>
</svg>
