<svg width="24" height="24" viewBox="0 0 24 24" fill="none" xmlns="http://www.w3.org/2000/svg">
<g clip-path="url(#clip0_1_6816)">
<path d="M7.51074 20.9202C8.61531 20.9202 9.51074 20.0247 9.51074 18.9202C9.51074 17.8156 8.61531 16.9202 7.51074 16.9202C6.40617 16.9202 5.51074 17.8156 5.51074 18.9202C5.51074 20.0247 6.40617 20.9202 7.51074 20.9202Z" stroke="white" stroke-width="1.5" stroke-linecap="round" stroke-linejoin="round"/>
<path d="M16.4902 20.9202C17.5948 20.9202 18.4902 20.0247 18.4902 18.9202C18.4902 17.8156 17.5948 16.9202 16.4902 16.9202C15.3857 16.9202 14.4902 17.8156 14.4902 18.9202C14.4902 20.0247 15.3857 20.9202 16.4902 20.9202Z" stroke="white" stroke-width="1.5" stroke-linecap="round" stroke-linejoin="round"/>
<path d="M4.73047 12.3701C5.83504 12.3701 6.73047 11.4747 6.73047 10.3701C6.73047 9.26555 5.83504 8.37012 4.73047 8.37012C3.6259 8.37012 2.73047 9.26555 2.73047 10.3701C2.73047 11.4747 3.6259 12.3701 4.73047 12.3701Z" stroke="white" stroke-width="1.5" stroke-linecap="round" stroke-linejoin="round"/>
<path d="M12 7.08008C13.1046 7.08008 14 6.18465 14 5.08008C14 3.97551 13.1046 3.08008 12 3.08008C10.8954 3.08008 10 3.97551 10 5.08008C10 6.18465 10.8954 7.08008 12 7.08008Z" stroke="white" stroke-width="1.5" stroke-linecap="round" stroke-linejoin="round"/>
<path d="M19.2705 12.3701C20.3751 12.3701 21.2705 11.4747 21.2705 10.3701C21.2705 9.26555 20.3751 8.37012 19.2705 8.37012C18.1659 8.37012 17.2705 9.26555 17.2705 10.3701C17.2705 11.4747 18.1659 12.3701 19.2705 12.3701Z" stroke="white" stroke-width="1.5" stroke-linecap="round" stroke-linejoin="round"/>
<path d="M12 10.4402C13.1 10.4402 14 11.3402 14 12.4402C14 13.5402 13.1 14.4402 12 14.4402C10.9 14.4402 10 13.5402 10 12.4402C10 11.3402 10.9 10.4402 12 10.4402Z" stroke="white" stroke-width="1.5" stroke-linecap="round" stroke-linejoin="round"/>
<path d="M13.1406 14.0801L15.3606 17.2801" stroke="white" stroke-width="1.5" stroke-linecap="round" stroke-linejoin="round"/>
<path d="M10.8604 14.0801L8.65039 17.2701" stroke="white" stroke-width="1.5" stroke-linecap="round" stroke-linejoin="round"/>
<path d="M10.0906 11.9002L6.64062 10.9102" stroke="white" stroke-width="1.5" stroke-linecap="round" stroke-linejoin="round"/>
<path d="M12 10.4401V7.08008" stroke="white" stroke-width="1.5" stroke-linecap="round" stroke-linejoin="round"/>
<path d="M13.9102 11.9002L17.3602 10.9102" stroke="white" stroke-width="1.5" stroke-linecap="round" stroke-linejoin="round"/>
</g>
<defs>
<clipPath id="clip0_1_6816">
<rect width="24" height="24" fill="white"/>
</clipPath>
</defs>
</svg>
